# xmcd
# Track frame offsets:
# 183
# 25243
# 46430
# 78585
# 93423
# 114130
# 132503
# 153313
# 168555
# 183118
# 191808
#
# Disc length: 2985 seconds
# Revision: 0
# Processed by: cddbd v1.4PL0 Copyright (c) Steve Scherf et al.
# Submitted via: VisiTrax 2.9.5.181 - For more info visit www.synapsa.com
#
DISCID=8a0ba70b
DTITLE=The Houserockers - Have Some Fun
DYEAR=1972
DGENRE=Blues
TTITLE0=Gonna Send You Back To Georgia
TTITLE1=Taylor's Crawl
TTITLE2=Rock Me Baby
TTITLE3=Good Nite Boogie
TTITLE4=Wild About You Baby
TTITLE5=Jumping With Symphony Sid
TTITLE6=The Things I Used To Do
TTITLE7=Phillips Stomp
TTITLE8=I Just Can't Take It
TTITLE9=What Do I Say
TTITLE10=Ingleside Blues
EXTD=Featuring: Hound Dog Taylor, Brewer Phillips, Ted Harvey
EXTT0=
EXTT1=
EXTT2=
EXTT3=
EXTT4=
EXTT5=
EXTT6=
EXTT7=
EXTT8=
EXTT9=
EXTT10=
PLAYORDER=
